<svg width="32" height="32" xmlns:xlink="http://www.w3.org/1999/xlink" xmlns="http://www.w3.org/2000/svg"><defs><linearGradient id="prefix__a"><stop offset="0" stop-color="#fff" stop-opacity=".3"/><stop offset="1" stop-color="#fff" stop-opacity=".1"/></linearGradient><linearGradient xlink:href="#prefix__a" id="prefix__b" x1="16" y1="10" x2="16" y2="30" gradientUnits="userSpaceOnUse"/></defs><path d="M4.575 2H12c1 0 3 3 4 3h11.425c.87 0 2.394-.012 2.992.589.595.597.583 2.116.583 2.986v17.85c0 .87.012 2.394-.589 2.992-.597.595-2.116.583-2.986.583H4.575c-.87 0-2.394.012-2.992-.589C.988 28.814 1 27.295 1 26.425V5.575c0-.87-.012-2.394.589-2.992C2.186 1.988 3.705 2 4.575 2z" fill="#f08"/><path d="M4.574 2c-.87 0-2.389-.013-2.986.582C.988 3.18 1 4.704 1 5.574v.5c0-.87-.012-2.392.588-2.99.597-.595 2.116-.584 2.986-.584H12c1 0 3 3 4 3h11.426c.87 0 2.394-.012 2.992.588.595.597.582 2.116.582 2.986v-.5c0-.87.013-2.389-.582-2.986-.598-.6-2.122-.588-2.992-.588H16c-1 0-3-3-4-3H4.574z" fill="#fff" fill-opacity=".3"/><path d="M4.575 18.5H10c1 0 3-3 4-3h13.425c.87 0 2.394-.012 2.992.588.595.598.583 2.117.583 2.986v7.351c0 .87.012 2.394-.589 2.992-.597.595-2.116.583-2.986.583H4.575c-.87 0-2.394.012-2.992-.589C.988 28.814 1 27.295 1 26.425v-4.35c0-.87-.012-2.394.589-2.993.597-.595 2.116-.582 2.986-.582z" fill="url(#prefix__b)"/><path d="M14 15.5c-1 0-3 3-4 3H4.574c-.87 0-2.389-.013-2.986.582-.6.598-.588 2.122-.588 2.992v.5c0-.87-.012-2.392.588-2.99.597-.595 2.116-.584 2.986-.584H10c1 0 3-3 4-3h13.426c.87 0 2.394-.012 2.992.588.595.597.582 2.116.582 2.986v-.5c0-.87.013-2.389-.582-2.986-.598-.6-2.122-.588-2.992-.588z" fill="#fff" fill-opacity=".3"/><path d="M1 25.926v.5c0 .87-.013 2.389.582 2.986.598.6 2.122.588 2.992.588h22.852c.87 0 2.389.013 2.986-.582.6-.598.588-2.122.588-2.992v-.5c0 .87.012 2.394-.588 2.992-.597.595-2.116.582-2.986.582H4.574c-.87 0-2.394.012-2.992-.588C.987 28.315 1 26.796 1 25.926z" fill-opacity=".3"/><path d="M3.5 8v10.524c.392-.023.773-.024 1.074-.024H10c1 0 3-3 4-3h13.426c.3 0 .682 0 1.074.024V8z" fill="#fff" fill-opacity=".8"/></svg>