<svg width="32" height="32" xmlns:xlink="http://www.w3.org/1999/xlink" xmlns="http://www.w3.org/2000/svg"><defs><linearGradient id="prefix__a"><stop offset="0" stop-color="#fff" stop-opacity=".3"/><stop offset="1" stop-color="#fff" stop-opacity=".1"/></linearGradient><linearGradient xlink:href="#prefix__a" id="prefix__b" x1="16" y1="10" x2="16" y2="30" gradientUnits="userSpaceOnUse" gradientTransform="matrix(.93333 0 0 .96428 1.067 1.071)"/></defs><path d="M5.337 3h6.93c.933 0 2.8 2.893 3.733 2.893h10.663c.812 0 2.235-.012 2.793.567.555.577.544 2.041.544 2.88v17.213c0 .838.01 2.308-.55 2.885-.557.574-1.975.562-2.787.562H5.337c-.812 0-2.235.011-2.793-.568-.555-.576-.544-2.04-.544-2.88V6.448c0-.838-.011-2.308.55-2.885C3.106 2.988 4.524 3 5.336 3z" fill="#f08"/><path d="M5.336 3c-.812 0-2.23-.013-2.787.561C1.989 4.138 2 5.608 2 6.447v.482c0-.84-.012-2.307.549-2.884.557-.574 1.975-.563 2.787-.563h6.93c.934 0 2.8 2.893 3.734 2.893h10.664c.812 0 2.235-.012 2.793.567.555.576.543 2.04.543 2.88v-.483c0-.838.012-2.303-.543-2.88-.558-.578-1.981-.566-2.793-.566H16C15.067 5.893 13.2 3 12.267 3z" fill="#fff" fill-opacity=".3"/><path d="M5.337 14.089H10.4c.933 0 2.8-2.893 3.733-2.893h12.53c.812 0 2.235-.011 2.793.568.555.576.544 2.04.544 2.88v11.909c0 .838.01 2.308-.55 2.885-.557.574-1.975.562-2.787.562H5.337c-.812 0-2.235.011-2.793-.568-.555-.576-.544-2.04-.544-2.88v-9.016c0-.839-.011-2.308.55-2.885.557-.574 1.975-.562 2.787-.562z" fill="url(#prefix__b)"/><path d="M14.133 11.196c-.933 0-2.8 2.893-3.733 2.893H5.336c-.812 0-2.23-.012-2.787.562-.56.576-.549 2.046-.549 2.885v.482c0-.839-.012-2.307.549-2.883.557-.574 1.975-.564 2.787-.564H10.4c.933 0 2.8-2.892 3.733-2.892h12.531c.812 0 2.235-.012 2.793.566.555.577.543 2.041.543 2.88v-.482c0-.839.012-2.303-.543-2.88-.558-.579-1.981-.567-2.793-.567z" fill="#fff" fill-opacity=".3"/><path d="M2 26.071v.482c0 .84-.012 2.304.543 2.88.558.579 1.981.567 2.793.567h21.328c.812 0 2.23.013 2.787-.561.56-.577.549-2.047.549-2.886v-.482c0 .84.012 2.309-.549 2.886-.557.574-1.975.56-2.787.56H5.336c-.812 0-2.235.013-2.793-.566C1.988 28.375 2 26.91 2 26.07z" fill-opacity=".3"/><path d="M4.333 8.786v5.326c.366-.022.722-.023 1.003-.023H10.4c.933 0 2.8-2.893 3.733-2.893h12.531c.281 0 .637 0 1.003.023V8.786z" fill="#fff" fill-opacity=".8"/></svg>